<svg width="21" height="26" viewBox="0 0 21 26" fill="none" xmlns="http://www.w3.org/2000/svg">
<path d="M19.484 0.512C19.388 1.568 19.316 2.588 19.268 3.572C19.244 4.556 19.232 5.312 19.232 5.84C19.232 6.32 19.244 6.776 19.268 7.208C19.292 7.64 19.316 8 19.34 8.288H18.512C18.272 6.536 17.9 5.156 17.396 4.148C16.892 3.116 16.232 2.396 15.416 1.988C14.624 1.556 13.688 1.34 12.608 1.34H11.132C10.436 1.34 9.908 1.4 9.548 1.52C9.188 1.64 8.948 1.88 8.828 2.24C8.708 2.6 8.648 3.152 8.648 3.896V22.616C8.648 23.36 8.708 23.912 8.828 24.272C8.948 24.632 9.188 24.872 9.548 24.992C9.908 25.112 10.436 25.172 11.132 25.172H12.896C13.976 25.172 14.924 24.944 15.74 24.488C16.58 24.008 17.288 23.204 17.864 22.076C18.464 20.948 18.92 19.424 19.232 17.504H20.06C19.988 18.272 19.952 19.28 19.952 20.528C19.952 21.08 19.964 21.86 19.988 22.868C20.012 23.876 20.084 24.92 20.204 26C18.98 25.952 17.6 25.928 16.064 25.928C14.528 25.904 13.16 25.892 11.96 25.892C11.36 25.892 10.592 25.892 9.656 25.892C8.72 25.892 7.712 25.904 6.632 25.928C5.552 25.928 4.46 25.94 3.356 25.964C2.252 25.964 1.208 25.976 0.224 26V25.28C0.992 25.232 1.568 25.136 1.952 24.992C2.336 24.848 2.588 24.56 2.708 24.128C2.852 23.696 2.924 23.048 2.924 22.184V4.328C2.924 3.44 2.852 2.792 2.708 2.384C2.588 1.952 2.324 1.664 1.916 1.52C1.532 1.352 0.968 1.256 0.224 1.232V0.512C1.208 0.536 2.252 0.559999 3.356 0.583999C4.46 0.583999 5.552 0.595999 6.632 0.619998C7.712 0.619998 8.72 0.619998 9.656 0.619998C10.592 0.619998 11.36 0.619998 11.96 0.619998C13.064 0.619998 14.312 0.619998 15.704 0.619998C17.12 0.595999 18.38 0.559999 19.484 0.512ZM13.868 12.824C13.868 12.824 13.868 12.944 13.868 13.184C13.868 13.424 13.868 13.544 13.868 13.544H7.568C7.568 13.544 7.568 13.424 7.568 13.184C7.568 12.944 7.568 12.824 7.568 12.824H13.868ZM14.912 8.072C14.816 9.44 14.768 10.484 14.768 11.204C14.792 11.924 14.804 12.584 14.804 13.184C14.804 13.784 14.816 14.444 14.84 15.164C14.864 15.884 14.924 16.928 15.02 18.296H14.192C14.072 17.456 13.844 16.676 13.508 15.956C13.196 15.236 12.74 14.66 12.14 14.228C11.54 13.772 10.76 13.544 9.8 13.544V12.824C10.52 12.824 11.132 12.68 11.636 12.392C12.14 12.08 12.548 11.684 12.86 11.204C13.196 10.7 13.46 10.172 13.652 9.62C13.844 9.068 13.988 8.552 14.084 8.072H14.912Z" fill="#918200"/>
</svg>
